<svg xmlns="http://www.w3.org/2000/svg" viewBox="0 0 1200 266.61"><title>logo-horizontal</title><g id="e6e651a9-5420-4dc6-b952-7814ae6726e7" data-name="logo_horizontal"><text transform="translate(325.88 183.63)" style="font-size:171.64801025390625px;fill:#1a1a1a;font-family:RooneySans-Bold, RooneySans;font-weight:700;letter-spacing:-0.04095465566918811em">te<tspan x="141.5" y="0" style="letter-spacing:-0.03900037016215663em">xtnibb</tspan><tspan x="606.89" y="0" style="letter-spacing:-0.04095181100323901em">l</tspan><tspan x="651.24" y="0" style="letter-spacing:-0.03900037016215663em">e</tspan></text><g id="b7673407-8bda-44a9-b8e1-effe173b9731" data-name="text"><path d="M216.69,237.62l-.49,0-.44-.07-.27-.06-.24-.05-.31-.11-.32-.13-.15-.07-.09-.05-.11-.06-.22-.12-.4-.27-.18-.14-.22-.2-.09-.09-.11-.1-.34-.4-.17-.22-.07-.11-.24-.4q-.07-.13-.15-.3l-.06-.15-.08-.2-.07-.19a3.29,3.29,0,0,1-.09-.32l0-.11,0-.26,0-.07,0-.22v-.39l0-.13V214.05a8,8,0,0,0-8-8H146.24a31.54,31.54,0,0,1-31.17-31.46V88.2a16.82,16.82,0,0,0,26.2-11.75A16.8,16.8,0,0,0,163,55.22,16.79,16.79,0,0,0,175.08,29h85.57a31.51,31.51,0,0,1,31.47,31.47V174.57A31.55,31.55,0,0,1,260.92,206h-7.26l-.46,0a7.63,7.63,0,0,0-2.63.61l-.26.09-.15.09a9.78,9.78,0,0,0-1.23.74l-.05,0,0,0a7.89,7.89,0,0,0-1.53,1.47L220,236.39A5.08,5.08,0,0,1,216.69,237.62Zm-38.64-88.55h53.33V95.74H178.05Z" style="fill:#39b54a"/><path d="M260.65,32.62a27.87,27.87,0,0,1,27.84,27.84V174.57a27.91,27.91,0,0,1-27.57,27.83h-7.26l-.62,0a11.5,11.5,0,0,0-3.95.92l-.39.18a11.47,11.47,0,0,0-1.9,1.13l-.05,0h0l0,0a11.73,11.73,0,0,0-2.08,2l-26.59,26.59-.49.49a1.45,1.45,0,0,1-.87.29h-.24l-.17,0-.06,0h-.05l-.1-.07-.15-.06-.08-.06-.06,0h0l-.08-.09,0,0,0-.05-.07-.08,0,0,0,0h0l0,0-.07-.14,0,0v0l0,0h0l0-.09h0l0-.22v-.62l0-.13v-18A11.66,11.66,0,0,0,203.6,202.4H146.27a27.91,27.91,0,0,1-27.57-27.83V93.92A20.47,20.47,0,0,0,144,80.9a21.08,21.08,0,0,0,3.18.24A20.45,20.45,0,0,0,167.37,58a20.42,20.42,0,0,0,13.42-25.39h79.86M174.42,152.7H235V92.11H174.42V152.7M260.65,25.36h-91.8a1.09,1.09,0,0,0-.62,2l.1.06a13.17,13.17,0,0,1-9.27,24.08h0l-.12,0h-.11a1.09,1.09,0,0,0-.91,1.71c.16.23.31.48.46.72a13.17,13.17,0,0,1-19,17.51h0l-.11-.09h0a1,1,0,0,0-.58-.17,1.09,1.09,0,0,0-1.1,1.09v.08h0a.9.9,0,0,1,0,.16,13.16,13.16,0,0,1-24.11,9s0,0,0,0-.06-.1-.1-.15,0,0,0,0a1.1,1.1,0,0,0-2,.7v92.62a35.09,35.09,0,0,0,34.8,35.09H203.6a4.39,4.39,0,0,1,4.38,4.39v18.41c0,.15,0,.3,0,.45a.81.81,0,0,0,0,.16h0c0,.08,0,.16,0,.24a.06.06,0,0,1,0,0,1.36,1.36,0,0,1,0,.2c0,.1,0,.21,0,.31h0a.88.88,0,0,0,0,.17s0,.05,0,.07a.43.43,0,0,0,0,.11h0a.17.17,0,0,1,0,.07,0,0,0,0,1,0,0c0,.08,0,.16,0,.24s.11.44.18.65.07.22.11.32l.12.31a2.92,2.92,0,0,0,.14.31q.14.3.3.6a.93.93,0,0,0,.11.19l.25.41c.05.07.09.14.15.21l.29.39c.06.08.13.15.2.23l.28.33a2.13,2.13,0,0,0,.26.26,3.07,3.07,0,0,0,.26.25c.1.1.21.18.31.27l.26.2c.23.17.46.34.71.49l.3.17.24.13.2.1.2.1.52.21.23.08.13,0,.29.09.49.12.28.06c.27,0,.54.09.82.12s.55,0,.83,0a8.74,8.74,0,0,0,5.8-2.21l.69-.7,26.89-26.88a4.19,4.19,0,0,1,.94-.94l-.32.32a3.79,3.79,0,0,1,.38-.32,4.17,4.17,0,0,1,.79-.46.09.09,0,0,1,.06,0,4.29,4.29,0,0,1,1.52-.36H261a35.09,35.09,0,0,0,34.8-35.09V60.46a35.11,35.11,0,0,0-35.1-35.1Zm-79,120.08V99.37h46.08v46.07Z" style="fill:#1a1a1a"/></g><g id="bbbdfe32-6b52-4e2e-a786-23f4b2920405" data-name="circuits"><g id="a56225bf-20b0-449d-a8f3-5ae5c88bfd69" data-name="right_circuit"><path d="M202.13,109.94c-.53,8.44-12,7.59-12.17,0C190.49,101.5,202,102.35,202.13,109.94Z" style="fill:#1a1a1a"/><polyline points="229.09 122.79 219.17 122.79 205.83 109.94 199.94 109.94" style="fill:none;stroke:#1a1a1a;stroke-miterlimit:10;stroke-width:7.2582502365112305px"/></g><g id="a839f05b-8274-40e3-8da0-a3903b5bef25" data-name="left_circuit"><path d="M219.26,135.74c-.53,8.44-12,7.59-12.17,0C207.62,127.3,219.07,128.15,219.26,135.74Z" style="fill:#1a1a1a"/><polyline points="180.45 122.79 189.87 122.79 203.46 135.63 210.36 135.63" style="fill:none;stroke:#1a1a1a;stroke-miterlimit:10;stroke-width:7.2582502365112305px"/></g></g></g></svg>