<svg xmlns="http://www.w3.org/2000/svg" viewBox="0 0 1200 1501.22"><title>logo-mark</title><g id="aa9bc3ad-ffe0-40f1-b97d-f9eb149cdf26" data-name="logo_mark"><g id="fa222419-86ec-4a19-8462-5665303bcf6d" data-name="text"><path d="M652.36,1167.87c-.64,0-1.27,0-1.88-.08s-1.34-.17-1.86-.28l-.46-.09-.12,0-.46-.1c-.23,0-.53-.12-.88-.22l-.39-.12-.32-.11-.22-.07-.5-.17-1.16-.47-.63-.31-.33-.2-.43-.2-.36-.2-.54-.31c-.51-.31-1-.67-1.58-1.07l-.69-.54c-.21-.18-.4-.33-.58-.5l-.17-.15-.17-.15-.36-.38-.36-.33-.12-.13c-.31-.34-.55-.62-.78-.9l-.28-.32-.21-.25c-.29-.36-.5-.65-.71-.94l-.18-.25-.12-.19c-.25-.37-.48-.76-.72-1.15l-.23-.42c-.2-.35-.4-.76-.6-1.2l-.05-.11c-.08-.18-.16-.35-.23-.53s-.23-.54-.32-.8-.18-.51-.26-.76l-.06-.18c-.09-.28-.19-.63-.27-1v0l-.13-.58-.13-.83-.11-.33-.08-.51c0-.15,0-.32-.06-.49l-.08-.58s0-.1,0-.16v-.72l-.09-.52c0-.24,0-.47,0-.71V1073.6A32.11,32.11,0,0,0,600,1041.53H370.65A125.87,125.87,0,0,1,245.9,915.67V570.18a67.21,67.21,0,0,0,104.78-47,66.94,66.94,0,0,0,58.2-5.49,67.2,67.2,0,0,0,28.68-79.45,67.15,67.15,0,0,0,48.37-104.92H828.22A126,126,0,0,1,954.1,459.23V915.67a125.87,125.87,0,0,1-124.75,125.86H800.28c-.57,0-1.14,0-1.71,0a31.73,31.73,0,0,0-10.91,2.55l-1,.45a32,32,0,0,0-5.31,3.16l-.19.13-.1-.11a32.06,32.06,0,0,0-6.11,5.87L665.63,1162.94A20.31,20.31,0,0,1,652.36,1167.87ZM497.83,813.68H711.15V600.35H497.83Z" style="fill:#39b54a"/><path d="M828.22,347.87A111.37,111.37,0,0,1,939.58,459.23V915.67A111.33,111.33,0,0,1,829.31,1027h-29c-.5,0-1.42,0-2.54.07h0a46.45,46.45,0,0,0-15.77,3.68c-.53.23-1,.46-1.54.7a47.31,47.31,0,0,0-7.63,4.53l-.16.12,0,0-.1-.12a46.32,46.32,0,0,0-8.33,7.86L657.82,1150.22l-2,2a5.71,5.71,0,0,1-3.5,1.17,3.93,3.93,0,0,1-.49,0l-.39,0-.07,0-.68-.14-.25-.08-.14,0h0l-.42-.25-.59-.27-.32-.21-.23-.18,0,0h0l-.33-.35-.13-.12-.16-.18-.26-.32-.08-.09-.12-.15v0l-.18-.3-.21-.36,0-.05-.05-.12,0-.1-.07-.14a.5.5,0,0,0,0-.13c0-.07,0-.14-.07-.2l0-.09-.22-1.35v-.7l-.1-.6V1073.6A46.63,46.63,0,0,0,600,1027H370.69A111.33,111.33,0,0,1,260.42,915.67V593.08a81.84,81.84,0,0,0,101-52.09,82.53,82.53,0,0,0,12.71,1,81.82,81.82,0,0,0,80.95-92.54,81.68,81.68,0,0,0,53.7-101.56H828.22M483.31,828.2H725.67V585.84H483.31V828.2M828.22,318.84H461a4.38,4.38,0,0,0-2.49,8c.14.1.29.18.44.27a52.65,52.65,0,0,1-37.11,96.28h-.05a3.85,3.85,0,0,0-.47-.08,3.39,3.39,0,0,0-.45,0,4.39,4.39,0,0,0-4.39,4.38,4.46,4.46,0,0,0,.75,2.46c.65.93,1.27,1.9,1.87,2.89a52.65,52.65,0,0,1-75.79,70l0,0a4.58,4.58,0,0,1-.45-.35.14.14,0,0,0-.1-.06,4.28,4.28,0,0,0-2.34-.69,4.39,4.39,0,0,0-4.4,4.38,1.72,1.72,0,0,0,0,.32v0a4.87,4.87,0,0,1,.1.65,51.2,51.2,0,0,1,.55,7.57,52.64,52.64,0,0,1-97,28.37.67.67,0,0,0-.06-.12c-.15-.2-.27-.4-.4-.6a.86.86,0,0,0-.07-.1,4.33,4.33,0,0,0-3.38-1.61,4.4,4.4,0,0,0-4.39,4.4V915.67a140.38,140.38,0,0,0,139.19,140.38H600a17.56,17.56,0,0,1,17.55,17.55v73.65c0,.6,0,1.21.05,1.79a4.48,4.48,0,0,0,0,.64h0c0,.32,0,.64.07,1a1,1,0,0,1,0,.17c0,.27.07.52.1.79s.1.82.17,1.22v.06c0,.22.07.46.12.67s0,.19,0,.29a3.25,3.25,0,0,0,.08.43v0a2.33,2.33,0,0,1,.07.25.8.8,0,0,0,0,.15c0,.32.12.63.18.94.22.88.46,1.77.74,2.62.13.42.28.85.44,1.27s.31.84.48,1.25.35.82.53,1.22c.37.82.77,1.62,1.21,2.39a7.22,7.22,0,0,0,.43.77c.34.55.67,1.1,1,1.64.19.28.37.57.59.85.36.52.75,1,1.15,1.54.25.32.52.64.8,1s.74.87,1.12,1.29a51.5,51.5,0,0,0,2.11,2.07c.4.37.82.72,1.23,1.07l1,.8c.92.69,1.88,1.34,2.86,1.94.39.24.79.47,1.19.69s.63.37,1,.52a8.2,8.2,0,0,0,.78.4c.27.13.56.26.82.4.69.3,1.37.58,2.08.85.3.12.61.22.91.33l.52.17c.39.14.77.25,1.17.37.65.18,1.31.35,2,.48a9,9,0,0,0,1.12.24,32.61,32.61,0,0,0,3.27.48c1.09.1,2.19.15,3.31.15a34.77,34.77,0,0,0,23.2-8.84l2.79-2.79,107.54-107.53a17.19,17.19,0,0,1,3.76-3.76l-1.29,1.28a15.84,15.84,0,0,1,1.54-1.28,17,17,0,0,1,3.14-1.84,1.42,1.42,0,0,1,.25-.12,17.59,17.59,0,0,1,6.08-1.44h30A140.38,140.38,0,0,0,968.61,915.67V459.23A140.4,140.4,0,0,0,828.22,318.84ZM512.35,799.16V614.87H696.64V799.16Z" style="fill:#1a1a1a"/></g><g id="b1f7b16d-7d73-4d2b-b209-eba1f6b7754b" data-name="circuits"><g id="a7dab514-5251-4fbf-ad41-6d4bd626bfc2" data-name="right_circuit"><path d="M594.14,657.16c-2.11,33.76-47.94,30.36-48.67,0C547.58,623.4,593.41,626.8,594.14,657.16Z" style="fill:#1a1a1a"/><polyline points="701.99 708.54 662.3 708.54 608.94 657.16 585.37 657.16" style="fill:none;stroke:#1a1a1a;stroke-miterlimit:10;stroke-width:29.033000946044922px"/></g><g id="af574bb8-fc97-47ea-9860-65d017e0fba1" data-name="left_circuit"><path d="M662.64,760.35c-2.11,33.76-47.94,30.36-48.67,0C616.08,726.59,661.91,730,662.64,760.35Z" style="fill:#1a1a1a"/><polyline points="507.43 708.54 545.11 708.54 599.47 759.93 627.04 759.93" style="fill:none;stroke:#1a1a1a;stroke-miterlimit:10;stroke-width:29.033000946044922px"/></g></g></g></svg>